<svg width="38" height="38" viewBox="0 0 38 38" fill="none" xmlns="http://www.w3.org/2000/svg">
<path d="M19.016 26.9165C17.6702 26.9165 16.3085 26.5682 15.2477 25.8874L5.716 19.6649C3.94267 18.509 2.88184 16.5615 2.88184 14.4399C2.88184 12.3182 3.94267 10.3707 5.716 9.21487L15.2635 3.00821C17.3852 1.63071 20.6943 1.63071 22.8002 3.02404L32.2843 9.24654C34.0418 10.4024 35.1027 12.3499 35.1027 14.4557C35.1027 16.5615 34.0418 18.509 32.2843 19.6649L22.8002 25.8874C21.7393 26.584 20.3777 26.9165 19.016 26.9165ZM19.016 4.35404C18.1135 4.35404 17.211 4.55987 16.5618 5.00321L7.03017 11.2099C5.92184 11.9382 5.27267 13.1099 5.27267 14.4399C5.27267 15.7699 5.906 16.9415 7.03017 17.6699L16.5618 23.8924C17.876 24.7474 20.1877 24.7474 21.5018 23.8924L30.986 17.6699C32.0943 16.9415 32.7277 15.7699 32.7277 14.4399C32.7277 13.1099 32.0943 11.9382 30.986 11.2099L21.5018 4.98737C20.8368 4.57571 19.9343 4.35404 19.016 4.35404Z" fill="#292D32"/>
<path d="M19.0002 36.0208C18.3035 36.0208 17.591 35.9258 17.021 35.7358L11.9702 34.0575C9.57937 33.2658 7.6952 30.6533 7.71104 28.1358L7.72687 20.71C7.72687 20.0608 8.2652 19.5225 8.91437 19.5225C9.56354 19.5225 10.1019 20.0608 10.1019 20.71L10.086 28.1358C10.086 29.6241 11.321 31.3341 12.7302 31.8091L17.781 33.4875C18.4144 33.6933 19.586 33.6933 20.2194 33.4875L25.2702 31.8091C26.6794 31.3341 27.9144 29.6241 27.9144 28.1516V20.805C27.9144 20.1558 28.4527 19.6175 29.1019 19.6175C29.751 19.6175 30.2894 20.1558 30.2894 20.805V28.1516C30.2894 30.6691 28.421 33.2658 26.0302 34.0733L20.9794 35.7516C20.4094 35.9258 19.6969 36.0208 19.0002 36.0208Z" fill="#292D32"/>
<path d="M33.8833 24.9375C33.2341 24.9375 32.6958 24.3992 32.6958 23.75V14.25C32.6958 13.6008 33.2341 13.0625 33.8833 13.0625C34.5325 13.0625 35.0708 13.6008 35.0708 14.25V23.75C35.0708 24.3992 34.5325 24.9375 33.8833 24.9375Z" fill="#292D32"/>
</svg>
