<svg width="32" height="32" viewBox="0 0 32 32" fill="none" xmlns="http://www.w3.org/2000/svg">
<path d="M12.8682 0C5.78229 0 0 5.78229 0 12.8682C0 19.954 5.78229 25.7363 12.8682 25.7363C15.773 25.7363 18.4493 24.7539 20.6074 23.119L28.9187 31.4285C29.0822 31.5989 29.2781 31.7349 29.4949 31.8286C29.7117 31.9223 29.945 31.9718 30.1811 31.9742C30.4172 31.9766 30.6515 31.9318 30.8701 31.8426C31.0887 31.7533 31.2874 31.6213 31.4543 31.4543C31.6213 31.2874 31.7533 31.0887 31.8426 30.8701C31.9318 30.6515 31.9766 30.4172 31.9742 30.1811C31.9718 29.945 31.9223 29.7117 31.8286 29.4949C31.7349 29.2781 31.5989 29.0822 31.4285 28.9187L23.119 20.6074C24.7539 18.4493 25.7363 15.7729 25.7363 12.8682C25.7363 5.78229 19.954 0 12.8682 0ZM12.8682 3.54984C18.0356 3.54984 22.1865 7.70077 22.1865 12.8682C22.1865 15.3492 21.2228 17.59 19.6558 19.2554C19.5033 19.3659 19.3693 19.4998 19.2589 19.6524C17.5931 21.2213 15.351 22.1865 12.8682 22.1865C7.70076 22.1865 3.54984 18.0355 3.54984 12.8682C3.54984 7.70077 7.70076 3.54984 12.8682 3.54984Z" fill="black"/>
</svg>
