<svg width="38" height="38" viewBox="0 0 38 38" fill="none" xmlns="http://www.w3.org/2000/svg">
<path d="M18.9998 34.9601C18.5248 34.9601 18.0498 34.8492 17.654 34.6276C14.6932 33.0126 9.484 31.3026 6.22234 30.8751L5.76317 30.8117C3.689 30.5584 1.979 28.6109 1.979 26.5051V7.37839C1.979 6.12755 2.46984 4.98755 3.37234 4.16422C4.27484 3.34089 5.4465 2.94505 6.6815 3.05589C10.1648 3.32505 15.4215 5.06672 18.3982 6.93505L18.7782 7.15672C18.889 7.22005 19.1265 7.22005 19.2215 7.17255L19.4748 7.01422C22.4515 5.14589 27.7082 3.37255 31.2073 3.07172C31.239 3.07172 31.3657 3.07172 31.3973 3.07172C32.5532 2.96089 33.7407 3.37255 34.6273 4.19589C35.5298 5.01922 36.0207 6.15922 36.0207 7.41005V26.5209C36.0207 28.6426 34.3107 30.5742 32.2207 30.8276L31.6982 30.8909C28.4365 31.3184 23.2115 33.0442 20.314 34.6434C19.934 34.8651 19.4748 34.9601 18.9998 34.9601ZM6.3015 5.41505C5.79484 5.41505 5.33567 5.58922 4.9715 5.92172C4.57567 6.28589 4.354 6.80839 4.354 7.37839V26.5051C4.354 27.4392 5.1615 28.3417 6.064 28.4684L6.539 28.5317C10.1015 29.0067 15.564 30.7959 18.7307 32.5217C18.8732 32.5851 19.079 32.6009 19.1582 32.5692C22.3248 30.8117 27.819 29.0067 31.3973 28.5317L31.9357 28.4684C32.8382 28.3576 33.6457 27.4392 33.6457 26.5051V7.39422C33.6457 6.80839 33.424 6.30172 33.0282 5.92172C32.6165 5.55755 32.094 5.38339 31.5082 5.41505C31.4765 5.41505 31.3498 5.41505 31.3182 5.41505C28.294 5.68422 23.4173 7.31505 20.7573 8.97755L20.504 9.15172C19.6332 9.69005 18.3982 9.69005 17.559 9.16755L17.179 8.94589C14.4715 7.28339 9.59484 5.66839 6.4915 5.41505C6.42817 5.41505 6.36484 5.41505 6.3015 5.41505Z" fill="#292D32"/>
<path d="M19 33.6299C18.3508 33.6299 17.8125 33.0916 17.8125 32.4424V8.69238C17.8125 8.04322 18.3508 7.50488 19 7.50488C19.6492 7.50488 20.1875 8.04322 20.1875 8.69238V32.4424C20.1875 33.1074 19.6492 33.6299 19 33.6299Z" fill="#292D32"/>
<path d="M12.271 14.6299H8.7085C8.05933 14.6299 7.521 14.0915 7.521 13.4424C7.521 12.7932 8.05933 12.2549 8.7085 12.2549H12.271C12.9202 12.2549 13.4585 12.7932 13.4585 13.4424C13.4585 14.0915 12.9202 14.6299 12.271 14.6299Z" fill="#292D32"/>
<path d="M13.4585 19.3799H8.7085C8.05933 19.3799 7.521 18.8415 7.521 18.1924C7.521 17.5432 8.05933 17.0049 8.7085 17.0049H13.4585C14.1077 17.0049 14.646 17.5432 14.646 18.1924C14.646 18.8415 14.1077 19.3799 13.4585 19.3799Z" fill="#292D32"/>
</svg>
